<?xml version="1.0" standalone="no"?>
<!DOCTYPE svg PUBLIC "-//W3C//DTD SVG 20010904//EN"
 "http://www.w3.org/TR/2001/REC-SVG-20010904/DTD/svg10.dtd">
<svg version="1.0" xmlns="http://www.w3.org/2000/svg"
 width="350.000000pt" height="350.000000pt" viewBox="0 0 350.000000 350.000000"
 preserveAspectRatio="xMidYMid meet">

<g transform="translate(0.000000,350.000000) scale(0.100000,-0.100000)"
fill="#000000" stroke="none">
<path d="M0 1750 l0 -1750 1750 0 1750 0 0 1750 0 1750 -1750 0 -1750 0 0
-1750z m2342 354 c106 -14 240 -34 298 -44 103 -19 104 -19 30 -14 -41 3 -163
17 -270 30 -278 35 -467 41 -608 20 -123 -18 -198 -40 -97 -28 33 4 175 7 315
6 l255 -1 113 -42 c104 -38 119 -41 185 -36 40 3 -187 -27 -503 -65 -535 -65
-631 -75 -605 -64 8 3 510 64 529 64 10 0 22 40 30 92 l7 47 -118 -5 c-65 -3
-156 -10 -203 -15 -101 -12 -300 -71 -257 -77 18 -2 27 -9 27 -21 0 -20 -34
-64 -43 -55 -3 3 3 14 14 25 10 10 19 24 19 29 0 15 -63 12 -85 -4 -19 -14
-19 -15 0 -38 l20 -23 -22 19 c-13 11 -23 26 -23 34 0 8 -6 12 -12 10 -7 -3
-43 -15 -80 -27 -38 -13 -68 -24 -68 -26 0 -2 32 -9 71 -15 39 -7 68 -14 65
-17 -2 -3 -68 5 -145 17 l-140 21 -115 -30 c-126 -34 -168 -48 -176 -60 -12
-20 -181 -102 -197 -97 -11 4 -30 -4 -48 -20 -23 -19 -25 -24 -10 -20 62 16
170 36 193 35 15 -1 -2 -7 -38 -15 -36 -8 -89 -21 -118 -30 -51 -14 -54 -17
-47 -42 l7 -27 -21 27 c-12 14 -21 29 -21 33 0 29 147 117 292 174 85 34 270
81 320 81 18 0 123 31 233 69 447 154 652 178 1047 125z m93 -170 c-21 -4
-1243 -164 -1251 -164 -3 0 -3 -4 0 -8 3 -5 -16 2 -41 15 -54 27 -108 29 -161
8 -71 -30 -109 -83 -122 -170 l-8 -50 -1 48 c-2 77 39 146 110 183 41 21 134
20 174 -2 32 -17 44 -16 456 40 635 86 780 104 824 103 22 0 31 -1 20 -3z
m-1257 -206 c19 -19 15 -48 -8 -48 -11 0 -20 5 -20 10 0 6 -28 10 -65 10 -58
0 -65 -2 -65 -20 0 -18 7 -20 66 -20 88 0 104 -10 104 -64 0 -61 -12 -67 -117
-64 -88 3 -88 3 -91 31 -3 22 1 27 17 27 12 0 21 -4 21 -10 0 -6 28 -10 65
-10 58 0 65 2 65 20 0 18 -7 20 -66 20 -88 0 -104 10 -104 63 0 24 5 48 12 55
7 7 43 12 93 12 50 0 86 -5 93 -12z m252 -7 c5 -11 10 -58 10 -105 0 -85 0
-86 -25 -86 -22 0 -25 4 -25 35 l0 35 -60 0 -60 0 0 -35 c0 -31 -3 -35 -25
-35 -25 0 -25 0 -25 93 0 59 4 97 12 105 8 8 45 12 100 12 76 0 89 -2 98 -19z
m240 -1 c0 -18 -7 -20 -80 -20 -73 0 -80 -2 -80 -20 0 -16 8 -19 63 -22 54 -3
62 -5 62 -23 0 -18 -8 -20 -62 -23 l-63 -3 0 -39 c0 -33 -3 -40 -20 -40 -19 0
-20 7 -20 105 l0 105 100 0 c93 0 100 -1 100 -20z m210 0 c0 -18 -7 -20 -80
-20 -73 0 -80 -2 -80 -20 0 -16 8 -19 63 -22 54 -3 62 -5 62 -23 0 -18 -8 -20
-62 -23 -55 -3 -63 -6 -63 -22 0 -18 7 -20 80 -20 73 0 80 -2 80 -20 0 -19 -7
-20 -100 -20 l-100 0 0 105 0 105 100 0 c93 0 100 -1 100 -20z m-1073 4 c-3
-3 -12 -4 -19 -1 -8 3 -5 6 6 6 11 1 17 -2 13 -5z m-54 -11 c-7 -2 -19 -2 -25
0 -7 3 -2 5 12 5 14 0 19 -2 13 -5z m85 -59 c-7 -32 -7 -64 1 -102 19 -93 34
-86 -170 -79 -182 5 -218 13 -190 40 11 10 13 9 7 -1 -11 -19 9 -22 180 -25
l161 -2 -1 90 c0 49 2 98 6 108 13 31 16 18 6 -29z m-231 -55 l33 -54 -23 -17
c-12 -10 -37 -18 -54 -18 -30 0 -33 3 -32 28 2 23 2 24 6 5 5 -27 37 -30 67
-8 18 14 18 16 -9 62 -16 26 -33 52 -39 56 -7 6 -6 7 4 4 8 -2 29 -28 47 -58z
m496 -141 c5 -17 -3 -38 -15 -38 -5 0 -6 9 -3 20 3 11 2 20 -3 20 -16 0 -20
-23 -9 -47 5 -12 7 -29 4 -37 -9 -22 -37 -20 -37 2 0 14 2 15 10 2 5 -8 12
-11 16 -7 4 4 2 13 -4 19 -13 13 -16 60 -5 71 11 12 41 8 46 -5z m297 2 c0 -5
-4 -10 -10 -10 -5 0 -10 5 -10 10 0 6 5 10 10 10 6 0 10 -4 10 -10z m70 -39
c-6 -23 -9 -45 -6 -50 3 -4 -8 -8 -24 -9 -16 0 -32 4 -36 9 -8 13 23 59 40 59
8 0 16 10 19 22 4 12 9 19 12 16 4 -3 1 -25 -5 -47z m150 4 c-6 -20 -9 -42 -6
-50 3 -10 -3 -13 -25 -13 -17 1 -33 7 -36 15 -6 16 24 53 42 53 7 0 15 10 18
22 4 12 9 19 13 16 3 -4 1 -23 -6 -43z m207 25 c-3 -13 0 -20 10 -20 20 0 13
-50 -9 -64 -29 -18 -38 3 -26 57 6 26 16 47 21 47 5 0 7 -9 4 -20z m457 -26
c-7 -26 -12 -50 -9 -54 2 -4 -9 -7 -26 -8 -27 -1 -30 2 -27 26 2 17 12 31 26
37 12 5 25 18 28 27 3 10 9 18 14 18 4 0 2 -21 -6 -46z m-1129 -13 c0 -8 -6
-16 -13 -19 -8 -2 -10 2 -5 15 3 10 3 15 -1 12 -4 -4 -9 -16 -11 -29 -3 -16 0
-20 10 -16 8 3 15 1 15 -4 0 -16 -40 -12 -46 4 -8 21 15 58 34 54 9 -2 17 -10
17 -17z m75 9 c0 -23 -33 -89 -47 -94 -13 -5 -14 -4 -3 9 11 13 10 18 -5 29
-18 13 -18 15 -2 40 17 25 57 37 57 16z m34 -12 c-4 -13 -7 -29 -7 -35 0 -7
-4 -13 -9 -13 -9 0 -10 16 -2 48 4 12 11 22 16 22 5 0 6 -10 2 -22z m36 1 c-7
-11 -9 -27 -6 -35 5 -14 -15 -20 -27 -8 -8 9 21 64 34 64 6 0 6 -7 -1 -21z
m60 9 c0 -4 -5 -8 -10 -8 -6 0 -15 -12 -21 -26 -13 -35 -21 -26 -13 14 4 22
12 30 25 29 10 -1 19 -5 19 -9z m27 -23 c-1 -21 -7 -35 -15 -35 -9 0 -11 7 -6
23 4 12 7 28 7 35 0 6 4 12 8 12 4 0 7 -16 6 -35z m153 14 c-7 -11 -9 -26 -7
-33 4 -9 -5 -13 -24 -14 -24 -1 -29 3 -29 22 0 28 18 46 47 46 21 0 22 -2 13
-21z m180 11 c0 -5 -7 -7 -16 -3 -14 5 -15 3 -5 -16 7 -12 9 -26 6 -31 -8 -13
-35 -13 -35 1 0 5 4 7 10 4 6 -4 7 6 4 25 -6 26 -4 30 15 30 11 0 21 -4 21
-10z m60 -14 c0 -28 -24 -51 -46 -42 -11 4 -13 12 -8 28 13 42 54 53 54 14z
m140 15 c0 -3 -9 -12 -20 -19 -11 -7 -20 -19 -20 -27 0 -8 -5 -15 -11 -15 -6
0 -8 9 -3 23 4 12 7 27 7 33 0 6 11 12 24 12 13 0 23 -3 23 -7z m55 0 c3 -6
-5 -20 -17 -32 -21 -20 -21 -21 -3 -15 15 6 17 4 8 -5 -16 -16 -43 -4 -43 19
0 32 40 56 55 33z m105 0 c0 -3 -9 -12 -20 -19 -11 -7 -20 -19 -20 -27 0 -8
-5 -15 -11 -15 -6 0 -8 9 -3 23 4 12 7 27 7 33 0 6 11 12 24 12 13 0 23 -3 23
-7z m30 -2 c0 -6 -5 -20 -12 -32 -10 -20 -10 -21 5 -9 9 8 19 22 22 33 4 10
10 19 15 19 6 0 5 -11 0 -26 -6 -14 -8 -29 -6 -33 3 -4 -8 -8 -24 -8 -31 0
-34 6 -24 45 6 22 24 31 24 11z m100 -3 c0 -8 -10 -22 -22 -32 -16 -11 -17
-15 -5 -11 9 4 17 2 17 -3 0 -13 -37 -13 -45 0 -9 15 22 60 40 60 8 0 15 -6
15 -14z m144 -14 c-5 -22 -2 -28 13 -28 15 0 18 6 15 28 -4 23 -1 28 17 28 11
0 21 -5 21 -11 0 -6 -7 -9 -15 -5 -18 6 -20 -5 -4 -21 20 -20 0 -32 -54 -30
-39 2 -53 6 -55 18 -4 21 24 49 48 49 16 0 18 -5 14 -28z"/>
<path d="M1608 2053 c7 -3 16 -2 19 1 4 3 -2 6 -13 5 -11 0 -14 -3 -6 -6z"/>
<path d="M2037 2046 c-3 -8 -9 -37 -13 -64 l-6 -48 193 24 c107 13 203 27 214
32 16 6 1 13 -65 34 -109 35 -313 49 -323 22z"/>
<path d="M1545 2043 c-49 -12 -382 -124 -395 -134 -27 -19 27 -4 240 70 179
61 226 81 155 64z"/>
<path d="M1270 1670 l0 -30 60 0 60 0 0 30 0 30 -60 0 -60 0 0 -30z"/>
<path d="M1430 1406 c-6 -9 -10 -21 -8 -28 3 -8 9 -4 17 10 15 28 9 39 -9 18z"/>
<path d="M1576 1404 c-11 -28 -6 -39 9 -20 8 11 15 23 15 28 0 14 -18 9 -24
-8z"/>
<path d="M1822 1408 c-6 -6 -12 -19 -12 -27 0 -13 2 -13 16 1 9 9 15 21 13 27
-3 9 -8 8 -17 -1z"/>
<path d="M2240 1399 c-13 -24 -4 -41 10 -19 10 16 13 40 5 40 -2 0 -9 -9 -15
-21z"/>
<path d="M1186 1404 c-11 -28 -6 -39 9 -20 8 11 15 23 15 28 0 14 -18 9 -24
-8z"/>
<path d="M1504 1404 c-4 -10 -9 -22 -11 -26 -2 -5 0 -8 6 -8 11 0 26 39 17 47
-3 3 -9 -3 -12 -13z"/>
<path d="M1746 1404 c-11 -28 -6 -39 9 -20 8 11 15 23 15 28 0 14 -18 9 -24
-8z"/>
<path d="M1945 1410 c-3 -5 -1 -10 4 -10 6 0 11 5 11 10 0 6 -2 10 -4 10 -3 0
-8 -4 -11 -10z"/>
<path d="M2180 1409 c0 -5 5 -7 10 -4 6 3 10 8 10 11 0 2 -4 4 -10 4 -5 0 -10
-5 -10 -11z"/>
<path d="M2316 1404 c-11 -28 -6 -39 9 -20 8 11 15 23 15 28 0 14 -18 9 -24
-8z"/>
</g>
</svg>
